<?xml version="1.0" encoding="UTF-8" standalone="no"?>
<svg
   xmlns:dc="http://purl.org/dc/elements/1.1/"
   xmlns:cc="http://creativecommons.org/ns#"
   xmlns:rdf="http://www.w3.org/1999/02/22-rdf-syntax-ns#"
   xmlns:svg="http://www.w3.org/2000/svg"
   xmlns="http://www.w3.org/2000/svg"
   viewBox="0 0 357.81332 491.51999"
   height="491.51999"
   width="357.81332"
   xml:space="preserve"
   id="svg2"
   version="1.1"><metadata
     id="metadata8"><rdf:RDF><cc:Work
         rdf:about=""><dc:format>image/svg+xml</dc:format><dc:type
           rdf:resource="http://purl.org/dc/dcmitype/StillImage" /></cc:Work></rdf:RDF></metadata><defs
     id="defs6" /><g
     transform="matrix(1.3333333,0,0,-1.3333333,0,491.52)"
     id="g10"><g
       transform="scale(0.1)"
       id="g12"><path
         id="path14"
         style="fill:#100f0d;fill-opacity:1;fill-rule:nonzero;stroke:none"
         d="m 2187.58,3190.37 c -216.44,216.45 -515.48,350.32 -845.77,350.32 -330.31,0 -629.333,-133.87 -845.779,-350.32 -216.445,-216.44 -350.324,-515.48 -350.324,-845.78 0,-330.29 133.883,-629.32 350.324,-845.77 216.446,-216.44 515.479,-350.32 845.779,-350.32 330.29,0 629.33,133.88 845.77,350.32 216.44,216.45 350.33,515.48 350.33,845.77 0,330.3 -133.88,629.34 -350.33,845.78 z m -845.77,496.03 c 370.51,0 705.97,-150.19 948.79,-393.01 242.82,-242.82 393.01,-578.27 393.01,-948.8 0,-370.51 -150.19,-705.97 -393.01,-948.8 -242.82,-242.81 -578.27,-393 -948.79,-393 -370.533,0 -705.982,150.19 -948.802,393 C 150.191,1638.62 0,1974.08 0,2344.59 c 0,370.53 150.191,705.98 393.008,948.8 242.82,242.82 578.277,393.01 948.802,393.01 v 0" /><path
         id="path16"
         style="fill:#100f0d;fill-opacity:1;fill-rule:evenodd;stroke:none"
         d="m 1341.81,2061.27 c 156.05,0 283.32,127.28 283.32,283.33 0,156.05 -127.27,283.32 -283.32,283.32 -156.05,0 -283.32,-127.27 -283.32,-283.32 0,-156.05 127.27,-283.33 283.32,-283.33" /><path
         id="path18"
         style="fill:#100f0d;fill-opacity:1;fill-rule:evenodd;stroke:none"
         d="m 1160.54,2633.36 c -49.1,173.19 -150.11,583.74 -33.07,673.6 309.29,254.92 958.59,-23.85 722.45,-206.86 0,0 -295.85,-223.52 -398.82,-432.48 -34.31,11.6 -71.07,17.9 -109.29,17.9 -66.62,0 -128.76,-19.13 -181.27,-52.16" /><path
         id="path20"
         style="fill:#100f0d;fill-opacity:1;fill-rule:evenodd;stroke:none"
         d="M 1568.65,963.57 1746.49,442.34 H 937.117 l 177.853,521.23 c 74.41,-12.148 150.23,-18.379 226.84,-18.379 76.6,0 152.42,6.231 226.84,18.379" /><path
         id="path22"
         style="fill:#100f0d;fill-opacity:1;fill-rule:evenodd;stroke:none"
         d="m 1216.23,333.281 c -32.19,0 -58.29,-26.09 -58.29,-58.281 0,-32.18 26.1,-58.281 58.29,-58.281 h 251.16 c 32.18,0 58.28,26.101 58.28,58.281 0,32.191 -26.1,58.281 -58.28,58.281 z M 699.418,550 H 1984.19 L 2356.61,0 H 326.996 l 372.422,550 v 0" /><path
         id="path24"
         style="fill:#100f0d;fill-opacity:1;fill-rule:evenodd;stroke:none"
         d="m 1630.57,2525.86 c 173.18,49.1 583.74,150.11 673.6,33.07 254.92,-309.29 -23.84,-958.58 -206.86,-722.45 0,0 -223.52,295.85 -432.48,398.82 11.6,34.31 17.9,71.07 17.9,109.29 0,66.62 -19.13,128.76 -52.16,181.27" /><path
         id="path26"
         style="fill:#100f0d;fill-opacity:1;fill-rule:evenodd;stroke:none"
         d="m 1523.07,2055.83 c 49.1,-173.18 150.11,-583.74 33.07,-673.61 -309.29,-254.91 -958.585,23.86 -722.449,206.87 0,0 295.849,223.52 398.809,432.48 34.32,-11.6 71.08,-17.89 109.31,-17.89 66.61,0 128.75,19.12 181.26,52.15" /><path
         id="path28"
         style="fill:#100f0d;fill-opacity:1;fill-rule:evenodd;stroke:none"
         d="m 1053.04,2163.33 c -173.185,-49.1 -583.739,-150.11 -673.61,-33.07 -254.91,309.29 23.855,958.59 206.871,722.44 0,0 223.519,-295.84 432.479,-398.8 -11.6,-34.32 -17.9,-71.08 -17.9,-109.31 0,-66.61 19.12,-128.75 52.16,-181.26" /></g></g></svg>